<svg width="600" height="600" viewBox="0 0 600 600" fill="none" xmlns="http://www.w3.org/2000/svg">
<path d="M248.587 243.785C248.587 275.086 219.644 270.351 183.941 270.351C148.238 270.351 119.295 275.086 119.295 243.785C119.295 212.483 133.433 157 183.941 157C236.189 157 248.587 212.483 248.587 243.785Z" fill="#2F2E41"/>
<path d="M159.16 283.729L127.404 307.841C127.404 307.841 93.8958 308.889 95.0281 330.309C96.1603 351.73 95.0281 362.728 95.0281 362.728C124.849 371.225 242.416 369.939 272.574 362.728C272.574 362.728 279.16 311.73 263.16 304.73C247.16 297.73 237.16 299.73 237.16 299.73L217.105 282.229L159.16 283.729Z" fill="#E5E5E5"/>
<path d="M158.133 476.688L151.542 470.096L177.908 443.729L151.542 417.363L158.133 410.771L184.5 437.138L210.867 410.771L217.458 417.363L191.092 443.729L217.458 470.096L210.867 476.688L184.5 450.321L158.133 476.688Z" fill="#EC6C6C"/>
<path d="M217.545 254.392C234.533 237.404 234.533 209.861 217.545 192.873C200.557 175.886 173.014 175.886 156.026 192.873C139.039 209.861 139.038 237.404 156.026 254.392C173.014 271.38 200.557 271.38 217.545 254.392Z" fill="#FFB7B7"/>
<path d="M133.464 222.531H150.669L158.26 201.278L159.778 222.531H168.001L172.429 210.133L173.314 222.531H234.418C234.418 210.318 229.566 198.606 220.93 189.97C212.294 181.334 200.582 176.482 188.369 176.482H179.513C167.3 176.482 155.587 181.334 146.952 189.97C138.316 198.606 133.464 210.318 133.464 222.531Z" fill="#2F2E41"/>
<path d="M248.587 243.785C248.587 275.086 219.644 270.351 183.941 270.351C148.238 270.351 119.295 275.086 119.295 243.785C119.295 212.483 133.433 157 183.941 157C236.189 157 248.587 212.483 248.587 243.785Z" fill="#2F2E41"/>
<path d="M217.545 254.392C234.533 237.404 234.533 209.861 217.545 192.873C200.557 175.886 173.014 175.886 156.026 192.873C139.039 209.861 139.038 237.404 156.026 254.392C173.014 271.38 200.557 271.38 217.545 254.392Z" fill="#FFB7B7"/>
<path d="M180.415 159.229L170.971 168.645L165.971 173.629L161.457 178.13L158.541 181.037L125 214.476C128.154 217.64 133.842 218.019 140.813 215.53C147.784 213.042 155.466 207.889 162.17 201.205L167.031 196.359C173.735 189.675 178.911 182.009 181.421 175.046C183.931 168.082 183.569 162.393 180.415 159.229Z" fill="#2F2E41"/>
<path d="M237.169 202.688L232.12 197.753L227.562 193.298L224.616 190.419L193.972 166.815C190.849 170.01 187.318 166.202 189.897 173.14C192.475 180.078 197.727 187.693 204.497 194.31L209.406 199.108C216.176 205.724 223.909 210.801 230.904 213.221C237.899 215.64 234.046 205.883 237.169 202.688Z" fill="#2F2E41"/>
<circle cx="167" cy="222.229" r="13" stroke="black" stroke-width="4"/>
<path d="M180 223.72C180 227.836 181.253 222.229 186.5 222.229C191.747 222.229 193 227.836 193 223.72" stroke="black" stroke-width="4"/>
<circle cx="206" cy="222.229" r="13" stroke="black" stroke-width="4"/>
<path d="M146 221.229L153 218.729V225.229L146 224.229V221.229Z" fill="black"/>
<path d="M227 221.229L220 218.729V225.229L227 224.229V221.229Z" fill="black"/>
<path d="M479.587 243.785C479.587 275.086 450.644 270.351 414.941 270.351C379.238 270.351 350.295 275.086 350.295 243.785C350.295 212.483 364.433 157 414.941 157C467.189 157 479.587 212.483 479.587 243.785Z" fill="#2F2E41"/>
<path d="M390.16 283.729L358.404 307.841C358.404 307.841 324.896 308.889 326.028 330.309C327.16 351.73 326.028 362.728 326.028 362.728C355.849 371.225 473.416 369.939 503.574 362.728C503.574 362.728 510.16 311.73 494.16 304.73C478.16 297.73 468.16 299.73 468.16 299.73L448.105 282.229L390.16 283.729Z" fill="#E5E5E5"/>
<path d="M448.545 254.392C465.533 237.404 465.533 209.861 448.545 192.873C431.557 175.886 404.014 175.886 387.027 192.873C370.039 209.861 370.039 237.404 387.026 254.392C404.014 271.38 431.557 271.38 448.545 254.392Z" fill="#FFB7B7"/>
<path d="M364.464 222.531H381.669L389.26 201.278L390.777 222.531H399.001L403.429 210.133L404.314 222.531H465.418C465.418 210.318 460.566 198.606 451.93 189.97C443.294 181.334 431.582 176.482 419.369 176.482H410.513C398.3 176.482 386.587 181.334 377.952 189.97C369.316 198.606 364.464 210.318 364.464 222.531Z" fill="#2F2E41"/>
<path d="M479.587 243.785C479.587 275.086 450.644 270.351 414.941 270.351C379.238 270.351 350.295 275.086 350.295 243.785C350.295 212.483 364.433 157 414.941 157C467.189 157 479.587 212.483 479.587 243.785Z" fill="#2F2E41"/>
<path d="M448.545 254.392C465.533 237.404 465.533 209.861 448.545 192.873C431.557 175.886 404.014 175.886 387.027 192.873C370.039 209.861 370.039 237.404 387.026 254.392C404.014 271.38 431.557 271.38 448.545 254.392Z" fill="#FFB7B7"/>
<path d="M411.415 159.229L401.971 168.645L396.971 173.629L392.457 178.13L389.541 181.037L356 214.476C359.154 217.64 364.842 218.019 371.813 215.53C378.784 213.042 386.466 207.889 393.17 201.205L398.031 196.359C404.735 189.675 409.911 182.009 412.421 175.046C414.931 168.082 414.569 162.393 411.415 159.229Z" fill="#2F2E41"/>
<path d="M468.169 202.688L463.12 197.753L458.562 193.298L455.617 190.419L424.972 166.815C421.849 170.01 418.318 166.202 420.897 173.14C423.476 180.078 428.728 187.693 435.497 194.31L440.406 199.108C447.176 205.724 454.909 210.801 461.904 213.221C468.899 215.64 465.046 205.883 468.169 202.688Z" fill="#2F2E41"/>
<path d="M406.975 470.229L381.325 444.579L387.738 438.167L406.975 457.404L448.263 416.117L454.675 422.529L406.975 470.229Z" fill="#33DA58"/>
<circle cx="167" cy="222" r="13" fill="black" fill-opacity="0.8"/>
<circle cx="206" cy="223" r="13" fill="black" fill-opacity="0.8"/>
</svg>
