<svg width="345" height="345" viewBox="0 0 345 345" fill="none" xmlns="http://www.w3.org/2000/svg">
<circle cx="172.5" cy="172.5" r="116" stroke="white" stroke-opacity="0.85" stroke-width="11"/>
<path d="M121.7 218C118.207 218 115.218 216.755 112.731 214.265C110.244 211.775 109 208.782 109 205.286V141.714C109 138.218 110.244 135.225 112.731 132.735C115.218 130.245 118.207 129 121.7 129H223.3C226.792 129 229.782 130.245 232.269 132.735C234.756 135.225 236 138.218 236 141.714V205.286C236 208.782 234.756 211.775 232.269 214.265C229.782 216.755 226.792 218 223.3 218H121.7ZM121.7 205.286H223.3V141.714H121.7V205.286ZM147.1 198.929H197.9V186.214H147.1V198.929ZM128.05 179.857H140.75V167.143H128.05V179.857ZM147.1 179.857H159.8V167.143H147.1V179.857ZM166.15 179.857H178.85V167.143H166.15V179.857ZM185.2 179.857H197.9V167.143H185.2V179.857ZM204.25 179.857H216.95V167.143H204.25V179.857ZM128.05 160.786H140.75V148.071H128.05V160.786ZM147.1 160.786H159.8V148.071H147.1V160.786ZM166.15 160.786H178.85V148.071H166.15V160.786ZM185.2 160.786H197.9V148.071H185.2V160.786ZM204.25 160.786H216.95V148.071H204.25V160.786Z" fill="white" fill-opacity="0.85"/>
<circle cx="88" cy="94" r="35" fill="black"/>
<path d="M87.5 119C83.9725 119 80.6575 118.331 77.555 116.992C74.4525 115.653 71.7537 113.836 69.4587 111.541C67.1637 109.246 65.3469 106.547 64.0081 103.445C62.6694 100.342 62 97.0275 62 93.5C62 89.9725 62.6694 86.6575 64.0081 83.555C65.3469 80.4525 67.1637 77.7537 69.4587 75.4587C71.7537 73.1637 74.4525 71.3469 77.555 70.0081C80.6575 68.6694 83.9725 68 87.5 68C91.0275 68 94.3425 68.6694 97.445 70.0081C100.547 71.3469 103.246 73.1637 105.541 75.4587C107.836 77.7537 109.653 80.4525 110.992 83.555C112.331 86.6575 113 89.9725 113 93.5C113 97.0275 112.331 100.342 110.992 103.445C109.653 106.547 107.836 109.246 105.541 111.541C103.246 113.836 100.547 115.653 97.445 116.992C94.3425 118.331 91.0275 119 87.5 119ZM87.5 113.9C93.195 113.9 98.0187 111.924 101.971 107.971C105.924 104.019 107.9 99.195 107.9 93.5C107.9 87.805 105.924 82.9813 101.971 79.0288C98.0187 75.0763 93.195 73.1 87.5 73.1C81.805 73.1 76.9813 75.0763 73.0288 79.0288C69.0763 82.9813 67.1 87.805 67.1 93.5C67.1 99.195 69.0763 104.019 73.0288 107.971C76.9813 111.924 81.805 113.9 87.5 113.9Z" fill="#EA0B0B"/>
<path d="M87.5 106.25C91.0275 106.25 94.0344 105.007 96.5206 102.521C99.0069 100.034 100.25 97.0275 100.25 93.5C100.25 89.9725 99.0069 86.9656 96.5206 84.4794C94.0344 81.9931 91.0275 80.75 87.5 80.75C83.9725 80.75 80.9656 81.9931 78.4794 84.4794C75.9931 86.9656 74.75 89.9725 74.75 93.5C74.75 97.0275 75.9931 100.034 78.4794 102.521C80.9656 105.007 83.9725 106.25 87.5 106.25Z" fill="#EA0B0B"/>
</svg>
