<svg width="600" height="600" viewBox="0 0 600 600" fill="none" xmlns="http://www.w3.org/2000/svg">
<path d="M482.16 243.785C482.16 275.086 453.217 270.351 417.515 270.351C381.812 270.351 352.869 275.086 352.869 243.785C352.869 212.483 367.007 157 417.515 157C469.763 157 482.16 212.483 482.16 243.785Z" fill="#2F2E41"/>
<path d="M392.734 283.729L360.978 307.841C360.978 307.841 327.47 308.889 328.602 330.309C329.734 351.73 328.602 362.728 328.602 362.728C358.423 371.225 475.989 369.939 506.147 362.728C506.147 362.728 512.734 311.73 496.734 304.73C480.734 297.73 470.734 299.73 470.734 299.73L450.679 282.229L392.734 283.729Z" fill="#E5E5E5"/>
<path d="M451.119 254.392C468.107 237.404 468.107 209.861 451.119 192.873C434.131 175.886 406.588 175.886 389.6 192.873C372.612 209.861 372.612 237.404 389.6 254.392C406.588 271.38 434.131 271.38 451.119 254.392Z" fill="#FFB7B7"/>
<path d="M367.038 222.531H384.243L391.833 201.278L393.351 222.531H401.575L406.002 210.133L406.888 222.531H467.991C467.991 210.318 463.14 198.606 454.504 189.97C445.868 181.334 434.155 176.482 421.943 176.482H413.087C400.874 176.482 389.161 181.334 380.525 189.97C371.889 198.606 367.038 210.318 367.038 222.531Z" fill="#2F2E41"/>
<path d="M482.16 243.785C482.16 275.086 453.217 270.351 417.515 270.351C381.812 270.351 352.869 275.086 352.869 243.785C352.869 212.483 367.007 157 417.515 157C469.763 157 482.16 212.483 482.16 243.785Z" fill="#2F2E41"/>
<path d="M451.119 254.392C468.107 237.404 468.107 209.861 451.119 192.873C434.131 175.886 406.588 175.886 389.6 192.873C372.612 209.861 372.612 237.404 389.6 254.392C406.588 271.38 434.131 271.38 451.119 254.392Z" fill="#FFB7B7"/>
<path d="M413.989 158.229L404.544 167.645L399.545 172.629L395.031 177.13L392.114 180.037L358.574 213.476C361.728 216.64 367.416 217.019 374.387 214.53C381.358 212.042 389.04 206.889 395.744 200.205L400.605 195.359C407.309 188.675 412.485 181.009 414.995 174.046C417.505 167.082 417.143 161.393 413.989 158.229Z" fill="#2F2E41"/>
<path d="M470.743 202.688L465.694 197.753L461.135 193.298L458.19 190.419L427.545 166.815C424.423 170.01 420.892 166.202 423.47 173.14C426.049 180.078 431.301 187.693 438.071 194.31L442.98 199.108C449.75 205.724 457.483 210.801 464.478 213.221C471.473 215.64 467.62 205.883 470.743 202.688Z" fill="#2F2E41"/>
<path d="M409.549 470.229L383.899 444.579L390.311 438.167L409.549 457.404L450.836 416.117L457.249 422.529L409.549 470.229Z" fill="#33DA58"/>
<path d="M251.16 243.785C251.16 275.086 222.217 270.351 186.515 270.351C150.812 270.351 121.869 275.086 121.869 243.785C121.869 212.483 136.007 157 186.515 157C238.763 157 251.16 212.483 251.16 243.785Z" fill="#2F2E41"/>
<path d="M220.119 254.392C237.107 237.404 237.107 209.861 220.119 192.873C203.131 175.886 175.588 175.886 158.6 192.873C141.612 209.861 141.612 237.404 158.6 254.392C175.588 271.38 203.131 271.38 220.119 254.392Z" fill="#FFB7B7"/>
<path d="M136.038 222.531H153.243L160.833 201.278L162.351 222.531H170.575L175.002 210.133L175.888 222.531H236.991C236.991 210.318 232.14 198.606 223.504 189.97C214.868 181.334 203.155 176.482 190.943 176.482H182.087C169.874 176.482 158.161 181.334 149.525 189.97C140.889 198.606 136.038 210.318 136.038 222.531Z" fill="#2F2E41"/>
<path d="M226.231 364.676L213.16 346.731C213.16 346.731 219.442 328.118 243.801 334.925C243.801 334.925 259.302 369.621 226.231 364.676Z" fill="#E5E5E5"/>
<path d="M157.16 282.731L125.404 306.843C125.404 306.843 91.8958 307.891 93.0281 329.311C94.1603 350.731 93.0281 361.729 93.0281 361.729C122.849 370.227 240.416 368.941 270.574 361.729C270.574 361.729 277.16 310.731 261.16 303.731C245.16 296.731 235.16 298.731 235.16 298.731L215.105 281.231L157.16 282.731Z" fill="#E5E5E5"/>
<path d="M251.16 243.785C251.16 275.086 222.217 270.351 186.515 270.351C150.812 270.351 121.869 275.086 121.869 243.785C121.869 212.483 136.007 157 186.515 157C238.763 157 251.16 212.483 251.16 243.785Z" fill="#2F2E41"/>
<path d="M220.119 254.392C237.107 237.404 237.107 209.861 220.119 192.873C203.131 175.886 175.588 175.886 158.6 192.873C141.612 209.861 141.612 237.404 158.6 254.392C175.588 271.38 203.131 271.38 220.119 254.392Z" fill="#FFB7B7"/>
<path d="M136.038 222.531H153.243L160.833 201.278L162.351 222.531H170.575L175.002 210.133L175.888 222.531H236.991C236.991 210.318 232.14 198.606 223.504 189.97C214.868 181.334 203.155 176.482 190.943 176.482H182.087C169.874 176.482 158.161 181.334 149.525 189.97C140.889 198.606 136.038 210.318 136.038 222.531Z" fill="#2F2E41"/>
<path d="M160.707 476.688L154.115 470.096L180.482 443.729L154.115 417.363L160.707 410.771L187.074 437.138L213.44 410.771L220.032 417.363L193.665 443.729L220.032 470.096L213.44 476.688L187.074 450.321L160.707 476.688Z" fill="#EC6C6C"/>
</svg>
