<svg width="952" height="952" viewBox="0 0 952 952" fill="none" xmlns="http://www.w3.org/2000/svg">
<path d="M667.762 416.73C664.788 363.017 645.926 297.221 607.759 244.68C567.832 189.715 518.708 175.5 477 175.5C435.56 175.5 378.942 189.525 335.406 244.463C293.658 297.145 281.244 373.126 278.746 416.937C264.919 422.119 248.5 440.797 248.5 481.5C248.5 525.623 271.585 550.639 286.393 559.356C293.618 587.316 315.103 648.743 349.889 693.016C395.346 750.871 453.4 762.5 477 762.5C501.502 762.5 545.59 745.132 594.71 693.479C633.461 652.731 654.72 588.699 661.268 559.117C674.897 550.185 695.5 525.155 695.5 481.5C695.5 450.869 688.432 434.122 680.023 425.025C675.821 420.48 671.478 418.068 668.002 416.815C667.921 416.786 667.841 416.758 667.762 416.73Z" stroke="white" stroke-width="13"/>
<path d="M363.785 707C365.118 745 320.785 833.8 124.785 847C94.9818 849.007 70.1188 854.562 49.5 862.826" stroke="white" stroke-width="13"/>
<path d="M585.5 701.5C584.167 739.5 630.314 833.8 826.314 847C856.069 849.004 880.901 854.544 901.5 862.787" stroke="white" stroke-width="13"/>
<rect x="49.5" y="42.5" width="852" height="852" stroke="white" stroke-width="13"/>
</svg>
