<svg width="600" height="600" viewBox="0 0 600 600" fill="none" xmlns="http://www.w3.org/2000/svg">
<rect x="67" y="99" width="229" height="288" fill="#5B6484"/>
<path d="M246.587 243.785C246.587 275.086 217.644 270.351 181.941 270.351C146.238 270.351 117.295 275.086 117.295 243.785C117.295 212.483 131.433 157 181.941 157C234.189 157 246.587 212.483 246.587 243.785Z" fill="#2F2E41"/>
<path d="M157.16 283.729L125.404 307.841C125.404 307.841 91.8958 308.889 93.0281 330.309C94.1603 351.73 93.0281 362.728 93.0281 362.728C122.849 371.225 240.416 369.939 270.574 362.728C270.574 362.728 277.16 311.73 261.16 304.73C245.16 297.73 235.16 299.73 235.16 299.73L215.105 282.229L157.16 283.729Z" fill="#454F70"/>
<path d="M156.133 476.688L149.542 470.096L175.908 443.729L149.542 417.363L156.133 410.771L182.5 437.138L208.867 410.771L215.458 417.363L189.092 443.729L215.458 470.096L208.867 476.688L182.5 450.321L156.133 476.688Z" fill="#EC6C6C"/>
<path d="M215.545 254.392C232.533 237.404 232.533 209.861 215.545 192.873C198.557 175.886 171.014 175.886 154.027 192.873C137.039 209.861 137.039 237.404 154.026 254.392C171.014 271.38 198.557 271.38 215.545 254.392Z" fill="#FFB7B7"/>
<path d="M131.464 222.531H148.669L156.26 201.278L157.777 222.531H166.001L170.429 210.133L171.314 222.531H232.418C232.418 210.318 227.566 198.606 218.93 189.97C210.294 181.334 198.582 176.482 186.369 176.482H177.513C165.3 176.482 153.587 181.334 144.952 189.97C136.316 198.606 131.464 210.318 131.464 222.531Z" fill="#2F2E41"/>
<path d="M246.587 243.785C246.587 275.086 217.644 270.351 181.941 270.351C146.238 270.351 117.295 275.086 117.295 243.785C117.295 212.483 131.433 157 181.941 157C234.189 157 246.587 212.483 246.587 243.785Z" fill="#2F2E41"/>
<path d="M215.545 254.392C232.533 237.404 232.533 209.861 215.545 192.873C198.557 175.886 171.014 175.886 154.027 192.873C137.039 209.861 137.039 237.404 154.026 254.392C171.014 271.38 198.557 271.38 215.545 254.392Z" fill="#5A5380"/>
<path d="M178.415 159.229L168.971 168.645L163.971 173.629L159.457 178.13L156.541 181.037L123 214.476C126.154 217.64 131.842 218.019 138.813 215.53C145.784 213.042 153.466 207.889 160.17 201.205L165.031 196.359C171.735 189.675 176.911 182.009 179.421 175.046C181.931 168.082 181.569 162.393 178.415 159.229Z" fill="#2F2E41"/>
<path d="M235.169 202.688L230.12 197.753L225.562 193.298L222.617 190.419L191.972 166.815C188.849 170.01 185.318 166.202 187.897 173.14C190.476 180.078 195.728 187.693 202.497 194.31L207.406 199.108C214.176 205.724 221.909 210.801 228.904 213.221C235.899 215.64 232.046 205.883 235.169 202.688Z" fill="#2F2E41"/>
<path d="M477.587 243.785C477.587 275.086 448.644 270.351 412.941 270.351C377.238 270.351 348.295 275.086 348.295 243.785C348.295 212.483 362.433 157 412.941 157C465.189 157 477.587 212.483 477.587 243.785Z" fill="#2F2E41"/>
<path d="M388.16 283.729L356.404 307.841C356.404 307.841 322.896 308.889 324.028 330.309C325.16 351.73 324.028 362.728 324.028 362.728C353.849 371.225 471.416 369.939 501.574 362.728C501.574 362.728 508.16 311.73 492.16 304.73C476.16 297.73 466.16 299.73 466.16 299.73L446.105 282.229L388.16 283.729Z" fill="#E5E5E5"/>
<path d="M446.545 254.392C463.533 237.404 463.533 209.861 446.545 192.873C429.557 175.886 402.014 175.886 385.027 192.873C368.039 209.861 368.039 237.404 385.026 254.392C402.014 271.38 429.557 271.38 446.545 254.392Z" fill="#FFB7B7"/>
<path d="M362.464 222.531H379.669L387.26 201.278L388.777 222.531H397.001L401.429 210.133L402.314 222.531H463.418C463.418 210.318 458.566 198.606 449.93 189.97C441.294 181.334 429.582 176.482 417.369 176.482H408.513C396.3 176.482 384.587 181.334 375.952 189.97C367.316 198.606 362.464 210.318 362.464 222.531Z" fill="#2F2E41"/>
<path d="M477.587 243.785C477.587 275.086 448.644 270.351 412.941 270.351C377.238 270.351 348.295 275.086 348.295 243.785C348.295 212.483 362.433 157 412.941 157C465.189 157 477.587 212.483 477.587 243.785Z" fill="#2F2E41"/>
<path d="M446.545 254.392C463.533 237.404 463.533 209.861 446.545 192.873C429.557 175.886 402.014 175.886 385.027 192.873C368.039 209.861 368.039 237.404 385.026 254.392C402.014 271.38 429.557 271.38 446.545 254.392Z" fill="#FFB7B7"/>
<path d="M409.415 159.229L399.971 168.645L394.971 173.629L390.457 178.13L387.541 181.037L354 214.476C357.154 217.64 362.842 218.019 369.813 215.53C376.784 213.042 384.466 207.889 391.17 201.205L396.031 196.359C402.735 189.675 407.911 182.009 410.421 175.046C412.931 168.082 412.569 162.393 409.415 159.229Z" fill="#2F2E41"/>
<path d="M466.169 202.688L461.12 197.753L456.562 193.298L453.617 190.419L422.972 166.815C419.849 170.01 416.318 166.202 418.897 173.14C421.476 180.078 426.728 187.693 433.497 194.31L438.406 199.108C445.176 205.724 452.909 210.801 459.904 213.221C466.899 215.64 463.046 205.883 466.169 202.688Z" fill="#2F2E41"/>
<path d="M404.975 470.229L379.325 444.579L385.737 438.167L404.975 457.404L446.262 416.117L452.675 422.529L404.975 470.229Z" fill="#33DA58"/>
<path d="M132 222.729L125 220.229V226.729L132 225.729V222.729Z" fill="black"/>
<path d="M501.5 115C500.837 115 500.201 114.768 499.732 114.355C499.263 113.943 499 113.383 499 112.799V106.197C499.001 105.614 499.265 105.055 499.734 104.643C500.202 104.231 500.838 104 501.5 104C502.162 104 502.798 104.231 503.266 104.643C503.735 105.055 503.999 105.614 504 106.197V112.799C504 113.088 503.935 113.375 503.81 113.642C503.684 113.908 503.5 114.151 503.268 114.355C503.036 114.56 502.76 114.722 502.457 114.832C502.153 114.943 501.828 115 501.5 115Z" fill="#FFDD63"/>
<path d="M501.5 167C501.172 167 500.847 166.943 500.543 166.833C500.24 166.722 499.964 166.56 499.732 166.356C499.5 166.152 499.316 165.909 499.19 165.642C499.065 165.375 499 165.089 499 164.801V158.203C499 157.914 499.064 157.627 499.189 157.36C499.315 157.093 499.499 156.85 499.731 156.645C499.963 156.441 500.239 156.278 500.542 156.168C500.846 156.057 501.171 156 501.5 156C501.829 156 502.154 156.057 502.458 156.168C502.761 156.278 503.037 156.441 503.269 156.645C503.501 156.85 503.685 157.093 503.811 157.36C503.936 157.627 504 157.914 504 158.203V164.801C504 165.089 503.935 165.375 503.81 165.642C503.684 165.909 503.5 166.152 503.268 166.356C503.036 166.56 502.76 166.722 502.457 166.833C502.153 166.943 501.828 167 501.5 167Z" fill="#FFDD63"/>
<path d="M517.184 122C516.752 122 516.33 121.872 515.971 121.632C515.611 121.392 515.332 121.051 515.166 120.652C515.001 120.253 514.958 119.814 515.042 119.39C515.126 118.966 515.334 118.577 515.64 118.272L520.273 113.639C520.682 113.23 521.238 113 521.817 113C522.396 113 522.951 113.23 523.36 113.64C523.77 114.049 524 114.604 524 115.183C524 115.762 523.77 116.318 523.361 116.727L518.728 121.36C518.526 121.563 518.285 121.724 518.02 121.834C517.755 121.944 517.471 122 517.184 122Z" fill="#FFDD63"/>
<path d="M481.184 158C480.752 158 480.33 157.872 479.971 157.632C479.611 157.392 479.332 157.051 479.166 156.652C479.001 156.253 478.958 155.814 479.042 155.39C479.126 154.967 479.334 154.577 479.64 154.272L484.272 149.64C484.681 149.23 485.237 149 485.816 149C486.395 149 486.951 149.23 487.36 149.64C487.77 150.049 488 150.605 488 151.184C488 151.763 487.77 152.318 487.36 152.728L482.728 157.36C482.525 157.563 482.285 157.725 482.02 157.834C481.755 157.944 481.471 158 481.184 158Z" fill="#FFDD63"/>
<path d="M530.797 138H524.197C523.614 137.999 523.055 137.735 522.643 137.266C522.231 136.798 522 136.162 522 135.5C522 134.838 522.231 134.202 522.643 133.734C523.055 133.265 523.614 133.001 524.197 133H530.797C531.086 133 531.372 133.064 531.64 133.189C531.907 133.315 532.15 133.499 532.354 133.731C532.559 133.963 532.721 134.239 532.832 134.542C532.943 134.846 533 135.171 533 135.5C533 135.829 532.943 136.154 532.832 136.458C532.721 136.761 532.559 137.037 532.354 137.269C532.15 137.501 531.907 137.685 531.64 137.811C531.372 137.936 531.086 138 530.797 138Z" fill="#FFDD63"/>
<path d="M478.803 138H472.203C471.914 138 471.628 137.936 471.36 137.811C471.093 137.685 470.85 137.501 470.646 137.269C470.441 137.037 470.279 136.761 470.168 136.458C470.057 136.154 470 135.829 470 135.5C470 135.171 470.057 134.846 470.168 134.542C470.279 134.239 470.441 133.963 470.646 133.731C470.85 133.499 471.093 133.315 471.36 133.189C471.628 133.064 471.914 133 472.203 133H478.803C479.386 133.001 479.945 133.265 480.357 133.734C480.769 134.202 481 134.838 481 135.5C481 136.162 480.769 136.798 480.357 137.266C479.945 137.735 479.386 137.999 478.803 138Z" fill="#FFDD63"/>
<path d="M521.817 158C521.53 158 521.246 157.944 520.981 157.834C520.716 157.725 520.475 157.563 520.273 157.36L515.641 152.729C515.438 152.526 515.277 152.286 515.167 152.021C515.057 151.756 515 151.471 515 151.185C515 150.898 515.056 150.613 515.166 150.348C515.276 150.083 515.437 149.842 515.64 149.639C515.842 149.437 516.083 149.276 516.348 149.166C516.613 149.056 516.898 149 517.185 149C517.472 149 517.756 149.057 518.021 149.167C518.286 149.277 518.526 149.438 518.729 149.641L523.361 154.273C523.666 154.578 523.874 154.967 523.958 155.391C524.042 155.814 523.999 156.253 523.834 156.652C523.669 157.051 523.389 157.392 523.03 157.632C522.671 157.872 522.248 158 521.817 158Z" fill="#FFDD63"/>
<path d="M485.816 122C485.529 122 485.245 121.944 484.98 121.834C484.715 121.725 484.475 121.563 484.272 121.36L479.64 116.728C479.437 116.525 479.276 116.285 479.166 116.02C479.056 115.755 479 115.471 479 115.184C479 114.897 479.056 114.613 479.166 114.348C479.276 114.083 479.437 113.842 479.64 113.64C479.842 113.437 480.083 113.276 480.348 113.166C480.613 113.056 480.897 113 481.184 113C481.471 113 481.755 113.056 482.02 113.166C482.285 113.276 482.525 113.437 482.728 113.64L487.36 118.272C487.666 118.577 487.874 118.967 487.958 119.39C488.042 119.814 487.999 120.253 487.834 120.652C487.668 121.051 487.389 121.392 487.029 121.632C486.67 121.872 486.248 122 485.816 122Z" fill="#FFDD63"/>
<path d="M501.5 149C498.83 149 496.22 148.208 494 146.725C491.78 145.241 490.049 143.133 489.028 140.666C488.006 138.199 487.739 135.485 488.259 132.866C488.78 130.248 490.066 127.842 491.954 125.954C493.842 124.066 496.248 122.78 498.866 122.259C501.485 121.739 504.199 122.006 506.666 123.028C509.133 124.049 511.241 125.78 512.725 128C514.208 130.22 515 132.83 515 135.5C514.996 139.079 513.572 142.511 511.041 145.041C508.511 147.572 505.079 148.996 501.5 149ZM501.5 126.5C499.72 126.5 497.98 127.028 496.5 128.017C495.02 129.006 493.866 130.411 493.185 132.056C492.504 133.7 492.326 135.51 492.673 137.256C493.02 139.002 493.877 140.605 495.136 141.864C496.395 143.123 497.998 143.98 499.744 144.327C501.49 144.674 503.3 144.496 504.944 143.815C506.589 143.134 507.994 141.98 508.983 140.5C509.972 139.02 510.5 137.28 510.5 135.5C510.497 133.114 509.548 130.826 507.861 129.139C506.174 127.452 503.886 126.503 501.5 126.5Z" fill="#FFDD63"/>
</svg>
