<svg width="487" height="313" viewBox="0 0 487 313" fill="none" xmlns="http://www.w3.org/2000/svg">
<g clip-path="url(#clip0_1_11)">
<path d="M278.046 286.449L273.016 286.553L270.213 266.764L277.635 266.61L278.046 286.449Z" fill="#FFB6B6"/>
<path d="M260.295 295.639C260.295 296.383 260.898 296.986 261.642 296.986H271.625C271.625 296.986 272.608 293.528 276.614 292.039L276.89 296.986H282.04V285.422C282.04 285.422 282.384 282.904 279.522 280.728C276.661 278.553 279.389 280.728 279.389 280.728L278.263 275.805L270.481 276.606L270.424 284.335L266.647 292.006L261.107 294.402C260.614 294.616 260.295 295.102 260.295 295.639Z" fill="#2F2E41"/>
<path d="M193.823 286.757L188.979 285.399L192.026 265.646L199.175 267.65L193.823 286.757Z" fill="#FFB6B6"/>
<path d="M174.172 290.409C173.957 291.121 174.359 291.873 175.071 292.088L184.627 294.982C184.627 294.982 186.569 291.956 190.833 291.693L189.666 296.507L194.595 298L197.944 286.932C197.944 286.932 199.002 284.621 196.893 281.709C194.784 278.798 196.765 281.671 196.765 281.671L197.114 276.632L189.433 275.144L187.14 282.524L181.304 288.772L175.308 289.46C174.774 289.522 174.328 289.894 174.172 290.409Z" fill="#2F2E41"/>
<path d="M254.791 88.8701L253.539 88.7925C253.628 88.4861 253.717 88.1835 253.799 87.8771C254.493 85.3055 252.965 82.0319 252.853 79.5611C252.263 82.1715 253.271 85.3831 252.228 87.8616C252.112 88.137 251.996 88.4124 251.872 88.6839L217.958 86.5428L216.019 67.9249C216.019 57.2157 224.7 48.5312 235.405 48.5312C240.139 48.5312 244.478 50.2301 247.843 53.0461C251.209 55.8659 253.605 59.8067 254.454 64.2944C254.966 67.0018 258.16 76.1944 254.791 88.8701Z" fill="#2F2E41"/>
<path d="M194.923 161.402L198.178 152.036L203.785 153.15L199.993 162.929C200.103 163.23 200.173 163.551 200.193 163.888C200.298 165.718 198.901 167.287 197.072 167.393C195.243 167.499 193.674 166.101 193.568 164.271C193.501 163.104 194.046 162.045 194.923 161.402Z" fill="#FFB6B6"/>
<path d="M268.091 166.449L265.039 157.015L270.183 154.519L273.055 164.608C273.324 164.78 273.574 164.995 273.792 165.251C274.98 166.647 274.812 168.742 273.417 169.93C272.022 171.118 269.928 170.95 268.74 169.555C267.982 168.665 267.779 167.491 268.091 166.449Z" fill="#FFB6B6"/>
<path d="M218.788 123.635V139.648L253.738 135.36L243.935 115.633L218.788 123.635Z" fill="#FFB6B6"/>
<path d="M240.833 79.5611H228.057L223.774 87.3186H212.231C212.231 87.3186 207.102 125.33 213.693 126.106L215.632 126.494L217.833 127.188C217.021 128.035 217.149 129.047 217.833 130.156C217.13 130.767 217.897 131.682 218.822 132.629L252.465 129.597L251.689 125.33C251.689 125.33 256.342 125.33 254.403 119.9V90.1345L241.996 86.9307L240.833 79.5611Z" fill="#23242A"/>
<path d="M250.139 92.3609L254.488 90.1345C254.488 90.1345 258.668 90.4216 260.607 94.3003C262.546 98.179 262.546 126.106 262.546 126.106L271.463 158.299L263.709 162.566L253.167 132.7L250.139 92.3609Z" fill="#23242A"/>
<path d="M217.182 89.6458L212.833 87.4194C212.833 87.4194 208.653 87.7065 206.714 91.5852C204.775 95.4639 204.775 123.391 204.775 123.391L195.858 155.584L203.612 159.851L214.154 129.985L217.182 89.6458Z" fill="#23242A"/>
<path d="M251.689 129.597L217.958 135.803V152.036C217.298 153.291 217.295 154.667 217.958 156.164C216.693 157.951 217.15 160.577 217.958 163.372L201.86 209.719L190.042 271.171L198.96 273.11L222.998 218.032L243.16 175.366L270.3 274.274L278.442 273.498C278.442 273.498 289.686 158.299 251.689 129.597Z" fill="#2F2E41"/>
<path d="M233.248 77.5565C239.323 77.5565 244.247 72.6305 244.247 66.554C244.247 60.4775 239.323 55.5515 233.248 55.5515C227.174 55.5515 222.25 60.4775 222.25 66.554C222.25 72.6305 227.174 77.5565 233.248 77.5565Z" fill="#FFB6B6"/>
<path d="M248.2 63.8522V65.9855L235.793 62.4947L226.492 64.4418C226.387 63.026 225.968 61.6336 225.27 60.4001C225.468 61.8198 225.476 63.2665 225.293 64.6939L219.121 65.9855V63.8522C219.121 55.8193 225.631 49.3069 233.66 49.3069C237.677 49.3069 241.31 50.936 243.943 53.5658C246.572 56.1994 248.2 59.8338 248.2 63.8522Z" fill="#2F2E41"/>
<path d="M312.674 289.052C313.695 289.116 314.26 287.846 313.487 287.106L313.41 286.8C313.42 286.776 313.431 286.751 313.441 286.727C314.474 284.262 317.975 284.279 319 286.747C319.909 288.938 321.066 291.132 321.351 293.448C321.479 294.471 321.422 295.512 321.195 296.516C323.325 291.86 324.446 286.777 324.446 281.665C324.446 280.38 324.376 279.096 324.232 277.814C324.114 276.766 323.951 275.725 323.74 274.693C322.6 269.114 320.131 263.8 316.57 259.362C314.858 258.426 313.431 256.963 312.568 255.209C312.258 254.576 312.016 253.895 311.901 253.202C312.095 253.228 312.635 250.259 312.488 250.077C312.76 249.665 313.246 249.46 313.542 249.058C315.017 247.058 317.049 247.407 318.11 250.125C320.376 251.269 320.397 253.166 319.007 254.991C318.123 256.152 318.001 257.723 317.225 258.966C317.305 259.068 317.388 259.167 317.468 259.27C318.932 261.148 320.198 263.168 321.266 265.289C320.964 262.932 321.41 260.091 322.169 258.26C323.034 256.174 324.654 254.417 326.081 252.613C327.795 250.447 331.309 251.392 331.611 254.138C331.614 254.165 331.617 254.191 331.62 254.218C331.408 254.338 331.2 254.465 330.997 254.599C329.841 255.364 330.24 257.158 331.611 257.37L331.642 257.375C331.566 258.138 331.435 258.896 331.243 259.64C333.073 266.722 329.121 269.302 323.479 269.417C323.354 269.481 323.233 269.545 323.108 269.606C323.68 271.216 324.137 272.868 324.475 274.543C324.778 276.022 324.989 277.517 325.107 279.019C325.254 280.914 325.242 282.818 325.082 284.71L325.091 284.642C325.497 282.559 326.628 280.613 328.269 279.265C330.715 277.255 334.17 276.515 336.809 274.9C338.079 274.122 339.706 275.127 339.484 276.6L339.474 276.671C339.081 276.83 338.698 277.016 338.327 277.223C338.115 277.343 337.907 277.47 337.705 277.604C336.548 278.37 336.948 280.164 338.318 280.375L338.349 280.38C338.372 280.383 338.391 280.386 338.413 280.39C337.739 281.99 336.8 283.476 335.625 284.757C334.48 290.94 329.564 291.526 324.306 289.726H324.303C323.728 292.231 322.888 294.678 321.808 297.011H312.897C312.865 296.912 312.836 296.81 312.808 296.711C313.632 296.762 314.462 296.714 315.273 296.564C314.612 295.752 313.951 294.934 313.29 294.123C313.274 294.107 313.261 294.091 313.248 294.075C312.913 293.659 312.575 293.247 312.239 292.832L312.239 292.831C312.218 291.556 312.371 290.285 312.674 289.052Z" fill="#F2F2F2"/>
<path d="M143.397 297.213C143.397 297.539 143.659 297.801 143.985 297.801H343.412C343.738 297.801 344 297.539 344 297.213C344 296.886 343.738 296.624 343.412 296.624H143.985C143.659 296.624 143.397 296.886 143.397 297.213Z" fill="#696969"/>
<path d="M334.782 190.509H161.707C160.07 190.509 158.74 191.839 158.74 193.477C158.74 195.114 160.07 196.445 161.707 196.445H334.782C336.418 196.445 337.749 195.114 337.749 193.477C337.749 191.839 336.418 190.509 334.782 190.509Z" fill="#3F3D56"/>
<path d="M276.183 190.509V196.445H161.707C160.07 196.445 158.74 195.114 158.74 193.477C158.74 191.839 160.07 190.509 161.707 190.509H276.183Z" fill="#23242A"/>
<path d="M192.119 184.572C198.127 184.572 202.998 179.7 202.998 173.689C202.998 167.678 198.127 162.806 192.119 162.806C186.11 162.806 181.24 167.678 181.24 173.689C181.24 179.7 186.11 184.572 192.119 184.572Z" fill="#23242A"/>
<path d="M189.519 179.194C189.311 179.194 189.103 179.135 188.92 179.017C188.601 178.812 188.41 178.463 188.41 178.083V170.23C188.41 169.829 188.617 169.47 188.963 169.269C189.309 169.068 189.723 169.067 190.071 169.266L197.703 173.628C198.067 173.836 198.281 174.225 198.262 174.644C198.243 175.062 197.995 175.429 197.614 175.603L189.982 179.093C189.834 179.161 189.676 179.194 189.519 179.194Z" fill="white"/>
<path d="M331.484 176.965C330.833 175.287 328.946 174.455 327.268 175.106C325.607 175.751 324.776 177.609 325.393 179.275L325.344 179.294L327.701 185.37L333.291 183.2C333.475 183.164 333.66 183.112 333.841 183.041C335.518 182.39 336.351 180.502 335.7 178.824C335.049 177.146 333.161 176.314 331.484 176.965Z" fill="#FF6584"/>
</g>
<defs>
<clipPath id="clip0_1_11">
<rect width="201" height="284" fill="white" transform="translate(143 14)"/>
</clipPath>
</defs>
</svg>
