<svg width="345" height="345" viewBox="0 0 345 345" fill="none" xmlns="http://www.w3.org/2000/svg">
<rect width="345" height="345" fill="white"/>
<circle cx="172.5" cy="172.5" r="116" stroke="#5F6368" stroke-width="11"/>
<path d="M172.5 236C159.933 236 149.208 231.558 140.325 222.675C131.442 213.792 127 203.067 127 190.5V151.5C127 138.933 131.442 128.208 140.325 119.325C149.208 110.442 159.933 106 172.5 106C185.067 106 195.792 110.442 204.675 119.325C213.558 128.208 218 138.933 218 151.5V190.5C218 203.067 213.558 213.792 204.675 222.675C195.792 231.558 185.067 236 172.5 236ZM179 151.5H205C205 143.7 202.535 136.821 197.606 130.862C192.677 124.904 186.475 121.167 179 119.65V151.5ZM140 151.5H166V119.65C158.525 121.167 152.323 124.904 147.394 130.862C142.465 136.821 140 143.7 140 151.5ZM172.5 223C181.492 223 189.156 219.831 195.494 213.494C201.831 207.156 205 199.492 205 190.5V164.5H140V190.5C140 199.492 143.169 207.156 149.506 213.494C155.844 219.831 163.508 223 172.5 223Z" fill="#5F6368"/>
<circle cx="88" cy="94" r="35" fill="white"/>
<path d="M87.5 119C83.9725 119 80.6575 118.331 77.555 116.992C74.4525 115.653 71.7537 113.836 69.4587 111.541C67.1637 109.246 65.3469 106.547 64.0081 103.445C62.6694 100.342 62 97.0275 62 93.5C62 89.9725 62.6694 86.6575 64.0081 83.555C65.3469 80.4525 67.1637 77.7537 69.4587 75.4587C71.7537 73.1637 74.4525 71.3469 77.555 70.0081C80.6575 68.6694 83.9725 68 87.5 68C91.0275 68 94.3425 68.6694 97.445 70.0081C100.547 71.3469 103.246 73.1637 105.541 75.4587C107.836 77.7537 109.653 80.4525 110.992 83.555C112.331 86.6575 113 89.9725 113 93.5C113 97.0275 112.331 100.342 110.992 103.445C109.653 106.547 107.836 109.246 105.541 111.541C103.246 113.836 100.547 115.653 97.445 116.992C94.3425 118.331 91.0275 119 87.5 119ZM87.5 113.9C93.195 113.9 98.0187 111.924 101.971 107.971C105.924 104.019 107.9 99.195 107.9 93.5C107.9 87.805 105.924 82.9813 101.971 79.0288C98.0187 75.0763 93.195 73.1 87.5 73.1C81.805 73.1 76.9813 75.0763 73.0288 79.0288C69.0763 82.9813 67.1 87.805 67.1 93.5C67.1 99.195 69.0763 104.019 73.0288 107.971C76.9813 111.924 81.805 113.9 87.5 113.9Z" fill="#EA0B0B"/>
<path d="M87.5 106.25C91.0275 106.25 94.0344 105.007 96.5206 102.521C99.0069 100.034 100.25 97.0275 100.25 93.5C100.25 89.9725 99.0069 86.9656 96.5206 84.4794C94.0344 81.9931 91.0275 80.75 87.5 80.75C83.9725 80.75 80.9656 81.9931 78.4794 84.4794C75.9931 86.9656 74.75 89.9725 74.75 93.5C74.75 97.0275 75.9931 100.034 78.4794 102.521C80.9656 105.007 83.9725 106.25 87.5 106.25Z" fill="#EA0B0B"/>
</svg>
