<svg width="345" height="345" viewBox="0 0 345 345" fill="none" xmlns="http://www.w3.org/2000/svg">
<rect width="345" height="345" fill="white"/>
<circle cx="172.5" cy="172.5" r="116" stroke="#5F6368" stroke-width="11"/>
<path d="M128 225C124.425 225 121.365 223.727 118.819 221.181C116.273 218.635 115 215.575 115 212V134C115 130.425 116.273 127.365 118.819 124.819C121.365 122.273 124.425 121 128 121H206C209.575 121 212.635 122.273 215.181 124.819C217.727 127.365 219 130.425 219 134V163.25L245 137.25V208.75L219 182.75V212C219 215.575 217.727 218.635 215.181 221.181C212.635 223.727 209.575 225 206 225H128ZM128 212H206V134H128V212Z" fill="#5F6368"/>
<circle cx="90" cy="94" r="35" fill="white"/>
<path d="M89.5 119C85.9725 119 82.6575 118.331 79.555 116.992C76.4525 115.653 73.7537 113.836 71.4587 111.541C69.1637 109.246 67.3469 106.547 66.0081 103.445C64.6694 100.342 64 97.0275 64 93.5C64 89.9725 64.6694 86.6575 66.0081 83.555C67.3469 80.4525 69.1637 77.7537 71.4587 75.4587C73.7537 73.1637 76.4525 71.3469 79.555 70.0081C82.6575 68.6694 85.9725 68 89.5 68C93.0275 68 96.3425 68.6694 99.445 70.0081C102.547 71.3469 105.246 73.1637 107.541 75.4587C109.836 77.7537 111.653 80.4525 112.992 83.555C114.331 86.6575 115 89.9725 115 93.5C115 97.0275 114.331 100.342 112.992 103.445C111.653 106.547 109.836 109.246 107.541 111.541C105.246 113.836 102.547 115.653 99.445 116.992C96.3425 118.331 93.0275 119 89.5 119ZM89.5 113.9C95.195 113.9 100.019 111.924 103.971 107.971C107.924 104.019 109.9 99.195 109.9 93.5C109.9 87.805 107.924 82.9813 103.971 79.0288C100.019 75.0763 95.195 73.1 89.5 73.1C83.805 73.1 78.9813 75.0763 75.0288 79.0288C71.0763 82.9813 69.1 87.805 69.1 93.5C69.1 99.195 71.0763 104.019 75.0288 107.971C78.9813 111.924 83.805 113.9 89.5 113.9Z" fill="#EA0B0B"/>
<path d="M89.5 106.25C93.0275 106.25 96.0344 105.007 98.5206 102.521C101.007 100.034 102.25 97.0275 102.25 93.5C102.25 89.9725 101.007 86.9656 98.5206 84.4794C96.0344 81.9931 93.0275 80.75 89.5 80.75C85.9725 80.75 82.9656 81.9931 80.4794 84.4794C77.9931 86.9656 76.75 89.9725 76.75 93.5C76.75 97.0275 77.9931 100.034 80.4794 102.521C82.9656 105.007 85.9725 106.25 89.5 106.25Z" fill="#EA0B0B"/>
</svg>
