<svg width="487" height="313" viewBox="0 0 487 313" fill="none" xmlns="http://www.w3.org/2000/svg">
<g clip-path="url(#clip0_1_11)">
<path d="M107.999 269.154C102.835 272.72 97.5537 276.4 93.9777 281.564C90.4019 286.729 88.8409 293.779 91.7142 299.368L91.6401 299.716C93.8178 300.484 96.1559 300.676 98.4292 300.275C100.702 299.873 102.834 298.891 104.619 297.424C109.165 293.598 110.591 287.295 111.75 281.459L115.181 264.196L107.999 269.154Z" fill="#2A2A2A"/>
<path d="M112.973 286.562C109.528 287.327 105.998 288.126 103.044 290.061C100.09 291.995 97.7894 295.341 98.109 298.864L97.9969 299.03C98.9705 299.892 100.149 300.488 101.419 300.761C102.689 301.034 104.008 300.974 105.248 300.587C108.426 299.556 110.498 296.571 112.334 293.774L117.764 285.5L112.973 286.562Z" fill="#2A2A2A"/>
<path d="M400.573 26.4105H106.426C106.313 26.4101 106.205 26.3649 106.125 26.2846C106.045 26.2044 106 26.0957 106 25.9825C106 25.8692 106.045 25.7605 106.125 25.6803C106.205 25.6 106.313 25.5548 106.426 25.5544H400.573C400.686 25.5548 400.794 25.6 400.874 25.6803C400.954 25.7605 400.999 25.8692 400.999 25.9825C400.999 26.0957 400.954 26.2044 400.874 26.2846C400.794 26.3649 400.686 26.4101 400.573 26.4105Z" fill="#CACACA"/>
<path d="M116.035 20.4175C118.628 20.4175 120.731 18.3093 120.731 15.7088C120.731 13.1082 118.628 11 116.035 11C113.441 11 111.339 13.1082 111.339 15.7088C111.339 18.3093 113.441 20.4175 116.035 20.4175Z" fill="#80838F"/>
<path d="M132.258 20.4175C134.851 20.4175 136.954 18.3093 136.954 15.7088C136.954 13.1082 134.851 11 132.258 11C129.664 11 127.562 13.1082 127.562 15.7088C127.562 18.3093 129.664 20.4175 132.258 20.4175Z" fill="#80838F"/>
<path d="M148.481 20.4175C151.074 20.4175 153.177 18.3093 153.177 15.7088C153.177 13.1082 151.074 11 148.481 11C145.887 11 143.785 13.1082 143.785 15.7088C143.785 18.3093 145.887 20.4175 148.481 20.4175Z" fill="#80838F"/>
<path d="M390.853 13.8802H379.326C379.1 13.8802 378.883 13.79 378.723 13.6294C378.562 13.4689 378.472 13.2511 378.472 13.0241C378.472 12.797 378.562 12.5792 378.723 12.4187C378.883 12.2581 379.1 12.1679 379.326 12.1679H390.853C391.08 12.1679 391.297 12.2581 391.457 12.4187C391.617 12.5792 391.707 12.797 391.707 13.0241C391.707 13.2511 391.617 13.4689 391.457 13.6294C391.297 13.79 391.08 13.8802 390.853 13.8802Z" fill="#80838F"/>
<path d="M390.853 17.0907H379.326C379.1 17.0907 378.883 17.0005 378.723 16.84C378.562 16.6794 378.472 16.4616 378.472 16.2346C378.472 16.0075 378.562 15.7898 378.723 15.6292C378.883 15.4687 379.1 15.3784 379.326 15.3784H390.853C391.08 15.3784 391.297 15.4687 391.457 15.6292C391.617 15.7898 391.707 16.0075 391.707 16.2346C391.707 16.4616 391.617 16.6794 391.457 16.84C391.297 17.0005 391.08 17.0907 390.853 17.0907Z" fill="#80838F"/>
<path d="M390.853 20.3012H379.326C379.1 20.3012 378.883 20.2111 378.723 20.0505C378.562 19.8899 378.472 19.6722 378.472 19.4451C378.472 19.218 378.562 19.0003 378.723 18.8397C378.883 18.6792 379.1 18.589 379.326 18.589H390.853C391.079 18.5898 391.295 18.6803 391.455 18.8408C391.614 19.0012 391.704 19.2186 391.704 19.4451C391.704 19.6717 391.614 19.889 391.455 20.0495C391.295 20.2099 391.079 20.3005 390.853 20.3012Z" fill="#80838F"/>
<path d="M306.323 44.767H111.221V162.058H306.323V44.767Z" fill="#2A2A2A"/>
<path d="M391.707 44.767H330.231V81.7252H391.707V44.767Z" fill="#2A2A2A"/>
<path d="M379.442 98.7038H342.864C342.407 98.7038 341.969 98.5217 341.646 98.1978C341.322 97.8738 341.141 97.4344 341.141 96.9762C341.141 96.5181 341.322 96.0787 341.646 95.7547C341.969 95.4307 342.407 95.2487 342.864 95.2487H379.442C379.899 95.2487 380.337 95.4307 380.66 95.7547C380.983 96.0787 381.165 96.5181 381.165 96.9762C381.165 97.4344 380.983 97.8738 380.66 98.1978C380.337 98.5217 379.899 98.7038 379.442 98.7038Z" fill="#4E4E4E"/>
<line x1="156.798" y1="116.543" x2="190.798" y2="101.543" stroke="#AAAAAA"/>
<path d="M373.544 92.7903H348.761C348.304 92.7903 347.866 92.6083 347.543 92.2843C347.22 91.9603 347.038 91.5209 347.038 91.0628C347.038 90.6046 347.22 90.1652 347.543 89.8412C347.866 89.5172 348.304 89.3352 348.761 89.3352H373.544C374.001 89.3352 374.44 89.5172 374.763 89.8412C375.086 90.1652 375.267 90.6046 375.267 91.0628C375.267 91.5209 375.086 91.9603 374.763 92.2843C374.44 92.6083 374.001 92.7903 373.544 92.7903Z" fill="#4E4E4E"/>
<path d="M391.707 111.974H330.231V148.932H391.707V111.974Z" fill="#2A2A2A"/>
<path d="M379.442 165.911H342.864C342.407 165.911 341.969 165.729 341.646 165.405C341.322 165.081 341.141 164.641 341.141 164.183C341.141 163.725 341.322 163.286 341.646 162.962C341.969 162.638 342.407 162.456 342.864 162.456H379.442C379.899 162.456 380.337 162.638 380.66 162.962C380.983 163.286 381.165 163.725 381.165 164.183C381.165 164.641 380.983 165.081 380.66 165.405C380.337 165.729 379.899 165.911 379.442 165.911Z" fill="#4E4E4E"/>
<path d="M373.544 159.997H348.761C348.304 159.997 347.866 159.815 347.543 159.491C347.22 159.167 347.038 158.728 347.038 158.27C347.038 157.812 347.22 157.372 347.543 157.048C347.866 156.724 348.304 156.542 348.761 156.542H373.544C374.001 156.543 374.438 156.725 374.761 157.049C375.083 157.373 375.264 157.812 375.264 158.27C375.264 158.727 375.083 159.166 374.761 159.49C374.438 159.814 374.001 159.996 373.544 159.997Z" fill="#4E4E4E"/>
<path d="M212.162 107.865C220.203 107.865 226.721 101.329 226.721 93.2667C226.721 85.2043 220.203 78.6684 212.162 78.6684C204.122 78.6684 197.603 85.2043 197.603 93.2667C197.603 101.329 204.122 107.865 212.162 107.865Z" fill="#9E616A"/>
<path d="M236.693 162.058H200.187L202.236 115.771L202.488 115.505L206.113 111.67H217.639L221.917 115.822L222.254 116.152L231.356 124.897L236.693 162.058Z" fill="#545454"/>
<path d="M210.292 162.058H182.546C182.363 144.345 182.218 130.98 182.218 130.98L183.635 130.116L183.644 130.111L199.205 120.638L202.471 115.317L202.488 115.506L203.449 126.721C203.449 126.721 208.67 143.634 210.292 162.058Z" fill="#1D1E22"/>
<path d="M248.044 162.058H223.356C222.036 156.057 221.349 150.342 221.648 145.577C222.86 126.113 220.064 115.317 221.277 115.317L221.917 115.822L229.533 121.854L239.562 125.539L246.52 128.099L247.733 128.545V129.131C247.737 132.076 247.767 145.753 248.044 162.058Z" fill="#1D1E22"/>
<path d="M198.389 97.834C198.389 97.834 199.626 95.6558 199.338 88.3792C199.051 81.1025 210.101 85.2181 219.335 84.5239C228.57 83.8298 226.615 96.6725 226.615 96.6725C226.615 96.6725 227.281 95.909 228.707 89.7108C230.134 83.5126 226.895 77.3357 226.895 77.3357C225.941 70.8225 220.801 72.91 220.801 72.91C223.277 73.8763 222.801 75.9424 222.801 75.9424C220.706 72.2587 215.566 74.3462 215.566 74.3462C208.71 70.0326 201.762 75.7131 201.762 75.7131C193.48 77.5977 198.337 84.2016 198.337 84.2016C190.009 88.4219 198.389 97.834 198.389 97.834Z" fill="#1D1E22"/>
<path d="M174.508 162.058C175.216 147.85 175.758 136.704 175.545 135.843C174.947 133.45 183.379 130.21 183.635 130.116L183.639 130.111H183.644L185.253 130.98L186.431 162.058H174.508Z" fill="#1D1E22"/>
<path d="M253.85 162.058H241.321L237.734 126.541L239.211 125.458C239.211 125.458 239.34 125.488 239.562 125.539C240.71 125.826 244.416 126.798 246.52 128.099C246.986 128.363 247.397 128.713 247.733 129.131C247.938 129.377 248.04 129.693 248.019 130.013C247.912 131.019 250.644 145.239 253.85 162.058Z" fill="#1D1E22"/>
<path d="M274.945 176.398H142.6C142.091 176.399 141.603 176.603 141.243 176.964C140.884 177.325 140.682 177.814 140.682 178.325C140.682 178.835 140.884 179.325 141.243 179.686C141.603 180.047 142.091 180.25 142.6 180.251H274.945C275.197 180.252 275.447 180.202 275.681 180.105C275.914 180.009 276.126 179.867 276.305 179.688C276.484 179.509 276.626 179.297 276.722 179.063C276.819 178.829 276.869 178.578 276.869 178.325C276.869 178.072 276.819 177.821 276.722 177.587C276.626 177.353 276.484 177.14 276.305 176.962C276.126 176.783 275.914 176.641 275.681 176.544C275.447 176.448 275.197 176.398 274.945 176.398Z" fill="#CACACA"/>
<path d="M239.083 176.398V180.251H142.6C142.091 180.25 141.603 180.047 141.243 179.686C140.884 179.325 140.682 178.835 140.682 178.325C140.682 177.814 140.884 177.325 141.243 176.964C141.603 176.603 142.091 176.399 142.6 176.398H239.083Z" fill="#80838F"/>
<path d="M239.083 182.177C241.205 182.177 242.926 180.453 242.926 178.325C242.926 176.197 241.205 174.472 239.083 174.472C236.961 174.472 235.241 176.197 235.241 178.325C235.241 180.453 236.961 182.177 239.083 182.177Z" fill="#80838F"/>
<path d="M208.772 210.43C207.203 210.43 205.67 209.964 204.366 209.09C203.061 208.216 202.045 206.974 201.444 205.521C200.844 204.067 200.687 202.468 200.993 200.926C201.299 199.383 202.055 197.966 203.164 196.854C204.273 195.741 205.686 194.984 207.225 194.677C208.763 194.37 210.358 194.528 211.807 195.13C213.257 195.732 214.495 196.751 215.367 198.059C216.238 199.367 216.704 200.904 216.704 202.477C216.701 204.586 215.865 206.607 214.378 208.098C212.891 209.589 210.875 210.428 208.772 210.43ZM208.772 195.136C207.324 195.136 205.909 195.567 204.705 196.373C203.501 197.18 202.562 198.327 202.008 199.668C201.454 201.009 201.309 202.485 201.591 203.909C201.874 205.333 202.571 206.641 203.595 207.668C204.619 208.695 205.924 209.394 207.344 209.677C208.764 209.96 210.236 209.815 211.574 209.259C212.912 208.704 214.055 207.763 214.86 206.556C215.664 205.348 216.093 203.929 216.093 202.477C216.091 200.531 215.319 198.665 213.947 197.289C212.574 195.913 210.713 195.138 208.772 195.136Z" fill="#545454"/>
<path d="M207.725 206.759C207.644 206.759 207.566 206.727 207.509 206.67C207.452 206.613 207.42 206.535 207.42 206.454V198.501C207.419 198.46 207.427 198.42 207.442 198.383C207.457 198.345 207.479 198.311 207.508 198.283C207.536 198.254 207.57 198.231 207.607 198.215C207.644 198.2 207.684 198.192 207.725 198.192C207.765 198.192 207.805 198.2 207.842 198.215C207.879 198.231 207.913 198.254 207.941 198.283C207.97 198.311 207.992 198.345 208.007 198.383C208.022 198.42 208.03 198.46 208.03 198.501V206.454C208.03 206.535 207.998 206.613 207.94 206.67C207.883 206.727 207.806 206.759 207.725 206.759Z" fill="#545454"/>
<path d="M209.82 206.759C209.739 206.759 209.661 206.727 209.604 206.67C209.547 206.613 209.515 206.535 209.515 206.454V198.501C209.514 198.46 209.522 198.42 209.537 198.383C209.552 198.345 209.575 198.311 209.603 198.283C209.631 198.254 209.665 198.231 209.702 198.216C209.739 198.2 209.779 198.192 209.82 198.192C209.86 198.192 209.9 198.2 209.937 198.216C209.974 198.231 210.008 198.254 210.036 198.283C210.065 198.311 210.087 198.345 210.102 198.383C210.117 198.42 210.125 198.46 210.125 198.501V206.454C210.125 206.535 210.093 206.613 210.035 206.67C209.978 206.727 209.901 206.759 209.82 206.759Z" fill="#545454"/>
<path d="M172.444 202.477C172.444 200.904 172.909 199.367 173.781 198.059C174.653 196.751 175.891 195.732 177.341 195.13C178.79 194.528 180.385 194.37 181.923 194.677C183.462 194.984 184.875 195.741 185.984 196.854C187.093 197.966 187.849 199.383 188.155 200.926C188.461 202.468 188.304 204.067 187.703 205.521C187.103 206.974 186.087 208.216 184.782 209.09C183.478 209.964 181.944 210.43 180.376 210.43C178.273 210.428 176.257 209.589 174.77 208.098C173.283 206.607 172.447 204.586 172.444 202.477ZM173.054 202.477C173.054 203.929 173.484 205.348 174.288 206.556C175.093 207.763 176.236 208.704 177.574 209.259C178.912 209.815 180.384 209.96 181.804 209.677C183.224 209.394 184.529 208.695 185.553 207.668C186.577 206.641 187.274 205.333 187.556 203.909C187.839 202.485 187.694 201.009 187.14 199.668C186.586 198.327 185.647 197.18 184.443 196.373C183.239 195.567 181.824 195.136 180.376 195.136C178.435 195.138 176.574 195.913 175.201 197.289C173.829 198.665 173.057 200.531 173.054 202.477Z" fill="#80838F"/>
<path d="M183.802 205.155C183.857 205.155 183.912 205.136 183.956 205.102C184 205.068 184.032 205.02 184.047 204.966C184.061 204.912 184.058 204.855 184.036 204.803C184.015 204.751 183.977 204.708 183.929 204.68L180.123 202.477L183.929 200.274C183.987 200.241 184.029 200.185 184.047 200.12C184.064 200.055 184.055 199.985 184.022 199.927C183.988 199.868 183.932 199.826 183.867 199.808C183.802 199.791 183.733 199.8 183.675 199.834L179.489 202.257C179.451 202.279 179.419 202.311 179.396 202.35C179.374 202.389 179.362 202.433 179.362 202.477C179.362 202.522 179.374 202.566 179.396 202.604C179.419 202.643 179.451 202.675 179.489 202.698L183.675 205.121C183.713 205.143 183.757 205.155 183.802 205.155Z" fill="#80838F"/>
<path d="M178.189 206.038C178.256 206.038 178.321 206.012 178.368 205.964C178.416 205.916 178.443 205.851 178.443 205.784V199.17C178.443 199.103 178.416 199.038 178.368 198.991C178.321 198.943 178.256 198.916 178.189 198.916C178.122 198.916 178.057 198.943 178.01 198.991C177.962 199.038 177.935 199.103 177.935 199.17V205.784C177.935 205.851 177.962 205.916 178.01 205.964C178.057 206.012 178.122 206.038 178.189 206.038Z" fill="#80838F"/>
<path d="M237.169 210.43C235.6 210.43 234.066 209.964 232.762 209.09C231.458 208.216 230.441 206.974 229.841 205.521C229.241 204.067 229.083 202.468 229.39 200.926C229.696 199.383 230.451 197.966 231.56 196.854C232.669 195.741 234.083 194.984 235.621 194.677C237.16 194.37 238.754 194.528 240.204 195.13C241.653 195.732 242.892 196.751 243.763 198.059C244.635 199.367 245.1 200.904 245.1 202.477C245.098 204.586 244.261 206.607 242.774 208.098C241.287 209.589 239.271 210.428 237.169 210.43ZM237.169 195.136C235.721 195.136 234.305 195.567 233.101 196.373C231.897 197.18 230.959 198.327 230.404 199.668C229.85 201.009 229.705 202.485 229.988 203.909C230.27 205.333 230.968 206.641 231.992 207.668C233.015 208.695 234.32 209.394 235.74 209.677C237.16 209.96 238.632 209.815 239.97 209.259C241.308 208.704 242.451 207.763 243.256 206.556C244.06 205.348 244.49 203.929 244.49 202.477C244.488 200.531 243.716 198.665 242.343 197.289C240.97 195.913 239.11 195.138 237.169 195.136Z" fill="#80838F"/>
<path d="M233.743 205.155C233.687 205.155 233.633 205.136 233.588 205.102C233.544 205.068 233.512 205.02 233.497 204.966C233.483 204.912 233.487 204.855 233.508 204.803C233.529 204.751 233.567 204.708 233.616 204.68L237.421 202.477L233.616 200.274C233.558 200.24 233.515 200.185 233.498 200.12C233.481 200.055 233.49 199.986 233.523 199.927C233.557 199.869 233.612 199.826 233.677 199.809C233.742 199.791 233.811 199.8 233.869 199.834L238.055 202.257C238.094 202.279 238.126 202.311 238.148 202.35C238.17 202.389 238.182 202.433 238.182 202.477C238.182 202.522 238.17 202.566 238.148 202.604C238.126 202.643 238.094 202.675 238.055 202.698L233.869 205.121C233.831 205.143 233.787 205.155 233.743 205.155Z" fill="#80838F"/>
<path d="M239.355 206.038C239.288 206.038 239.223 206.012 239.176 205.964C239.128 205.916 239.102 205.851 239.102 205.784V199.17C239.102 199.103 239.128 199.038 239.176 198.991C239.223 198.943 239.288 198.916 239.355 198.916C239.423 198.916 239.487 198.943 239.535 198.991C239.582 199.038 239.609 199.103 239.609 199.17V205.784C239.609 205.851 239.582 205.916 239.535 205.964C239.487 206.012 239.423 206.038 239.355 206.038Z" fill="#80838F"/>
<path d="M132.47 208.471C132.051 208.05 131.729 207.542 131.527 206.982C131.324 206.423 131.247 205.826 131.3 205.233C131.353 204.641 131.535 204.067 131.832 203.552C132.13 203.038 132.537 202.595 133.024 202.255L129.122 188.331L136.263 190.617L138.874 203.489C139.389 204.347 139.572 205.365 139.389 206.35C139.205 207.335 138.668 208.218 137.879 208.832C137.089 209.446 136.103 209.749 135.106 209.682C134.109 209.616 133.171 209.185 132.47 208.471Z" fill="#FFB6B6"/>
<path d="M130.561 139.098L129.082 137.554C129.082 137.554 124.509 140.704 125.477 150.467C126.191 157.679 123.933 160.737 124.185 181.698L130.561 200.895L137.936 197.019L132.601 173.333L130.561 139.098Z" fill="#545454"/>
<path d="M136.094 294.897H141.382L143.898 274.445L136.093 274.446L136.094 294.897Z" fill="#FFB6B6"/>
<path d="M134.745 293.166L145.159 293.165C146.919 293.166 148.608 293.867 149.852 295.115C151.097 296.363 151.796 298.055 151.796 299.82V300.036L134.745 300.037L134.745 293.166Z" fill="#1D1E22"/>
<path d="M151.515 293.019L156.764 293.664L161.744 273.672L153.998 272.72L151.515 293.019Z" fill="#FFB6B6"/>
<path d="M150.387 291.136L160.723 292.407C162.47 292.622 164.061 293.524 165.145 294.915C166.229 296.305 166.717 298.07 166.503 299.822L166.477 300.037L149.553 297.956L150.387 291.136Z" fill="#1D1E22"/>
<path d="M133.353 190.038C133.353 190.038 123.167 197.019 128.26 215.913L135.147 289.255L143.33 289.196L146.796 253.007L149.151 227.53L157.022 253.876L150.548 286.203L160.103 287.212L171.55 249.618L166.03 196.092L133.353 190.038Z" fill="#1D1E22"/>
<path d="M157.932 135.573L152.752 131.395L139.016 130.829L129.082 137.554C129.082 137.554 128.057 161.502 134.779 182.835L131.255 191.746L166.493 196.179L157.932 135.573Z" fill="#545454"/>
<path d="M146.826 125.703C153.333 125.703 158.608 120.414 158.608 113.889C158.608 107.365 153.333 102.075 146.826 102.075C140.319 102.075 135.044 107.365 135.044 113.889C135.044 120.414 140.319 125.703 146.826 125.703Z" fill="#FFB6B6"/>
<path d="M149.917 99.2855H147.298C145.474 98.7403 143.548 98.6298 141.673 98.9629C139.799 99.2961 138.028 100.064 136.501 101.204C134.975 102.345 133.735 103.828 132.881 105.534C132.027 107.24 131.582 109.122 131.582 111.031L127.504 124.524C127.387 124.913 127.362 125.324 127.431 125.725C127.5 126.125 127.662 126.504 127.904 126.831C128.146 127.157 128.46 127.422 128.822 127.605C129.184 127.788 129.584 127.883 129.99 127.883H131.98C132.814 126.693 133.177 125.235 133.001 123.791C133.371 124.695 133.63 125.64 133.773 126.607C133.819 127.031 133.81 127.46 133.747 127.883H151.063C151.175 126.18 150.613 124.502 149.497 123.212C150.893 124.61 152.105 126.179 153.106 127.883H153.431C154.12 127.883 154.781 127.609 155.268 127.12C155.755 126.632 156.028 125.97 156.028 125.279V112.052H162.649C162.649 110.376 162.32 108.716 161.68 107.167C161.04 105.618 160.102 104.21 158.92 103.025C157.738 101.839 156.334 100.899 154.789 100.257C153.244 99.6157 151.589 99.2855 149.917 99.2855Z" fill="#1D1E22"/>
<path d="M163.028 207.45C162.609 207.029 162.287 206.521 162.084 205.961C161.882 205.402 161.805 204.805 161.858 204.212C161.911 203.619 162.092 203.045 162.39 202.531C162.688 202.016 163.095 201.574 163.582 201.234L159.68 187.309L166.821 189.595L169.432 202.468C169.947 203.326 170.13 204.344 169.947 205.329C169.763 206.314 169.226 207.197 168.437 207.811C167.647 208.425 166.661 208.727 165.664 208.661C164.667 208.594 163.729 208.163 163.028 207.45Z" fill="#FFB6B6"/>
<path d="M153.465 138.215L157.932 135.573C157.932 135.573 164.957 134.331 165.707 143.716C166.457 153.101 167.537 177.463 167.537 177.463L169.728 198L161.597 199.738L152.251 171.654L153.465 138.215Z" fill="#545454"/>
<path d="M194.48 301H86.5093C86.3742 301 86.2447 300.946 86.1492 300.85C86.0537 300.755 86 300.625 86 300.489C86 300.354 86.0537 300.224 86.1492 300.128C86.2447 300.032 86.3742 299.979 86.5093 299.979H194.48C194.615 299.979 194.745 300.032 194.84 300.128C194.936 300.224 194.989 300.354 194.989 300.489C194.989 300.625 194.936 300.755 194.84 300.85C194.745 300.946 194.615 301 194.48 301Z" fill="#CACACA"/>
</g>
<circle cx="212" cy="91" r="23.5" stroke="#AAAAAA"/>
<defs>
<clipPath id="clip0_1_11">
<rect width="315" height="290" fill="white" transform="translate(86 11)"/>
</clipPath>
</defs>
</svg>
