<svg width="487" height="313" viewBox="0 0 487 313" fill="none" xmlns="http://www.w3.org/2000/svg">
<g clip-path="url(#clip0_1_11)">
<path d="M84.0415 87.1375C105.603 87.1375 123.083 69.6458 123.083 48.0687C123.083 26.4917 105.603 9 84.0415 9C62.4795 9 45 26.4917 45 48.0687C45 69.6458 62.4795 87.1375 84.0415 87.1375Z" fill="#313030"/>
<path d="M402.959 174.689C424.521 174.689 442 157.197 442 135.62C442 114.043 424.521 96.5516 402.959 96.5516C381.397 96.5516 363.917 114.043 363.917 135.62C363.917 157.197 381.397 174.689 402.959 174.689Z" fill="#313030"/>
<path d="M280.997 299.837L274.133 296.944L269.424 262.512H206.721L201.617 296.804L195.476 299.876C195.182 300.023 194.946 300.265 194.807 300.563C194.668 300.861 194.633 301.197 194.709 301.517C194.784 301.837 194.965 302.122 195.223 302.326C195.481 302.53 195.8 302.641 196.128 302.641H280.431C280.768 302.641 281.094 302.524 281.355 302.311C281.615 302.098 281.794 301.801 281.86 301.47C281.927 301.14 281.877 300.797 281.72 300.499C281.563 300.201 281.307 299.967 280.997 299.837Z" fill="#514E4E"/>
<path d="M392.426 267.093H84.4075C82.7914 267.089 81.2428 266.444 80.1013 265.299C78.9599 264.154 78.3188 262.603 78.3188 260.986V217.521H398.514V260.986C398.514 262.603 397.873 264.154 396.732 265.299C395.59 266.444 394.042 267.089 392.426 267.093Z" fill="#6E6E6E"/>
<path d="M398.836 238.064H78.0377V52.0865C78.0399 50.1348 78.8157 48.2637 80.1949 46.8836C81.574 45.5036 83.4439 44.7273 85.3942 44.7251H391.48C393.43 44.7273 395.3 45.5036 396.679 46.8836C398.058 48.2637 398.834 50.1348 398.836 52.0865V238.064Z" fill="#292929"/>
<path d="M379.676 224.565H97.1977C95.6941 224.564 94.2525 223.965 93.1893 222.901C92.1261 221.838 91.528 220.395 91.5263 218.89V63.8985C91.528 62.3938 92.126 60.9513 93.1893 59.8873C94.2525 58.8233 95.694 58.2248 97.1977 58.223H379.676C381.18 58.2248 382.621 58.8233 383.685 59.8873C384.748 60.9513 385.346 62.3938 385.348 63.8985V218.89C385.346 220.395 384.748 221.838 383.685 222.901C382.621 223.965 381.18 224.564 379.676 224.565Z" fill="black"/>
<path d="M317.658 303H158.93C158.767 303.003 158.608 302.953 158.477 302.856C158.346 302.76 158.251 302.623 158.206 302.466C158.178 302.36 158.174 302.248 158.196 302.141C158.218 302.033 158.264 301.931 158.331 301.844C158.398 301.757 158.485 301.686 158.583 301.637C158.682 301.589 158.79 301.563 158.901 301.563H317.599C317.771 301.557 317.939 301.609 318.077 301.711C318.215 301.813 318.315 301.959 318.36 302.125C318.383 302.23 318.382 302.339 318.358 302.444C318.333 302.549 318.286 302.647 318.219 302.731C318.151 302.815 318.066 302.883 317.969 302.929C317.872 302.976 317.766 303 317.658 303Z" fill="#6E6E6E"/>
<path d="M342.638 173.997H263.812C263.615 174.014 263.42 173.953 263.269 173.827C263.117 173.701 263.02 173.521 263 173.325V109.675C263.02 109.479 263.117 109.299 263.269 109.173C263.42 109.047 263.615 108.986 263.812 109.003H342.638C342.834 108.986 343.029 109.047 343.181 109.173C343.333 109.299 343.429 109.479 343.449 109.675V173.325C343.429 173.521 343.333 173.701 343.181 173.827C343.029 173.953 342.834 174.014 342.638 173.997Z" fill="#464646"/>
<path d="M334.07 116.043H272.38C272.165 116.043 271.958 116.129 271.806 116.281C271.654 116.433 271.568 116.64 271.568 116.855V164.689C271.568 164.904 271.654 165.111 271.806 165.263C271.958 165.415 272.165 165.501 272.38 165.501H334.07C334.285 165.501 334.491 165.415 334.643 165.263C334.796 165.111 334.881 164.904 334.882 164.689V116.855C334.881 116.64 334.796 116.433 334.643 116.281C334.491 116.129 334.285 116.043 334.07 116.043Z" fill="black"/>
<path d="M318.409 165.501C318.757 164.247 319.028 163.165 319.167 162.4C319.21 162.164 319.214 161.923 319.179 161.685C318.66 157.987 309.277 154.86 308.073 154.474L307.783 151.254L295.972 149.981L294.476 154.1L290.237 155.691C290.084 155.747 289.938 155.823 289.803 155.915C289.447 156.155 289.174 156.498 289.019 156.899C288.865 157.299 288.837 157.738 288.939 158.155L290.744 165.501L318.409 165.501Z" fill="#626262"/>
<path d="M293.924 165.501H284.759C285.088 163.454 285.382 161.644 285.573 160.492C286.273 156.301 289.325 155.943 289.803 155.915C289.841 155.911 289.864 155.911 289.866 155.911H291.794L293.924 165.501Z" fill="#626262"/>
<path d="M318.409 165.501H320.631C320.523 164.116 320.019 162.791 319.179 161.685C318.758 161.128 318.214 160.676 317.59 160.362L317.422 160.29L315.469 165.501H318.409Z" fill="#626262"/>
<path d="M301.416 147.943C306.113 147.943 309.92 144.133 309.92 139.433C309.92 134.733 306.113 130.923 301.416 130.923C296.719 130.923 292.912 134.733 292.912 139.433C292.912 144.133 296.719 147.943 301.416 147.943Z" fill="#A0616A"/>
<path d="M295.708 135.287C296.588 136.329 298.078 136.623 299.452 136.743C302.665 136.921 305.888 136.657 309.029 135.96C309.225 137.849 308.694 139.884 309.805 141.438C310.326 139.557 310.628 137.623 310.707 135.673C310.79 134.837 310.681 133.992 310.388 133.205C310.232 132.81 309.968 132.467 309.626 132.215C309.284 131.963 308.879 131.812 308.455 131.779C309.089 131.298 309.831 130.98 310.616 130.854L307.916 129.497L308.61 128.784L303.721 128.485L305.137 127.585C303.005 127.292 300.848 127.224 298.702 127.382C297.7 127.383 296.716 127.656 295.857 128.174C295.05 128.751 294.584 129.899 295.085 130.747C294.457 130.85 293.867 131.112 293.369 131.507C292.871 131.903 292.482 132.419 292.239 133.007C291.932 133.941 291.858 134.937 292.023 135.907C292.207 137.463 292.568 138.992 293.1 140.466" fill="#28282F"/>
<path d="M132 173.148V109.674C132.022 109.477 132.121 109.296 132.274 109.171C132.428 109.046 132.624 108.985 132.821 109.003H212.575C212.773 108.985 212.969 109.046 213.122 109.171C213.276 109.296 213.374 109.477 213.397 109.674V173.148C213.374 173.345 213.276 173.525 213.122 173.651C212.969 173.776 212.773 173.836 212.575 173.819H132.821C132.624 173.836 132.428 173.776 132.274 173.651C132.121 173.525 132.022 173.345 132 173.148Z" fill="#464646"/>
<path d="M140.669 116.948V165.345C140.669 165.563 140.756 165.772 140.91 165.926C141.064 166.08 141.272 166.166 141.49 166.167H203.906C204.124 166.166 204.333 166.08 204.487 165.926C204.641 165.772 204.727 165.563 204.728 165.345V116.948C204.727 116.73 204.641 116.521 204.487 116.367C204.333 116.213 204.124 116.126 203.906 116.126H141.49C141.272 116.126 141.064 116.213 140.91 116.367C140.756 116.521 140.669 116.73 140.669 116.948Z" fill="black"/>
<path d="M166.557 166.167H179.119L178.336 154.409L173.804 155.455L169.397 153.759L169.28 153.715L169.273 153.711C169.271 153.715 169.27 153.718 169.269 153.722C169.2 154.002 167.816 159.545 166.557 166.167Z" fill="#626262"/>
<path d="M158.987 156.328L160.16 166.167H170.747L169.397 153.759L169.384 153.638L169.28 153.715L169.269 153.722L166.657 155.629L158.987 156.328Z" fill="#28282F"/>
<path d="M177.261 166.167H186.742L186.879 158.421L179.902 156.106L178.336 154.409C178.336 154.409 177.841 159.513 177.261 166.167Z" fill="#28282F"/>
<path d="M154.422 166.167H162.279L161.775 159.119L158.987 156.328C158.987 156.328 156.78 160.96 154.422 166.167Z" fill="#28282F"/>
<path d="M184.506 166.167H188.651C188.633 163.909 188.622 162.35 188.622 161.91C188.642 161.229 188.494 160.554 188.19 159.945C187.886 159.337 187.435 158.813 186.879 158.421L184.785 159.119L184.506 166.167Z" fill="#28282F"/>
<path d="M185.153 150.709H163.191V141.446C163.191 138.272 165.426 134.455 168.173 132.938C172.028 130.809 176.244 130.772 179.738 132.836C181.382 133.81 182.746 135.195 183.695 136.855C184.644 138.515 185.146 140.393 185.153 142.306V150.709Z" fill="#28282F"/>
<path d="M181.567 146.35C183.668 142.503 182.256 137.68 178.412 135.577C174.567 133.475 169.748 134.888 167.646 138.735C165.545 142.582 166.958 147.405 170.802 149.508C174.646 151.611 179.466 150.197 181.567 146.35Z" fill="#FFB8B8"/>
<path d="M182.147 142.952H170.83L170.803 142.824C170.672 142.149 170.503 141.482 170.296 140.826C169.847 141.485 169.432 142.167 169.054 142.869L169.008 142.952H166.808C166.673 142.952 166.54 142.924 166.416 142.869C166.293 142.815 166.182 142.735 166.091 142.635C166.031 142.569 165.891 142.415 166.471 135.336C166.487 135.167 166.546 135.006 166.643 134.867C166.74 134.729 166.872 134.618 167.025 134.545C171.99 132.225 177.022 132.287 181.982 134.728H182.07L182.101 134.851C183.08 142.386 182.939 142.548 182.879 142.618C182.788 142.723 182.675 142.807 182.549 142.865C182.423 142.922 182.286 142.952 182.147 142.952Z" fill="#28282F"/>
<rect x="155" y="194" width="56" height="1" rx="0.5" fill="#464646"/>
<rect x="264" y="194" width="56" height="1" rx="0.5" fill="#464646"/>
<rect x="158" y="181" width="13" height="4" rx="2" fill="#464646"/>
<rect x="175" y="181" width="13" height="4" rx="2" fill="#464646"/>
<rect x="288" y="181" width="13" height="4" rx="2" fill="#464646"/>
<rect x="305" y="181" width="13" height="4" rx="2" fill="#464646"/>
</g>
<path d="M237.5 204C242.747 204 247 199.747 247 194.5C247 189.253 242.747 185 237.5 185C232.253 185 228 189.253 228 194.5C228 199.747 232.253 204 237.5 204Z" fill="#292929"/>
<path d="M241.901 194.332L234.296 190.026C234.266 190.009 234.232 190 234.197 190C234.163 190 234.129 190.009 234.099 190.026C234.069 190.043 234.044 190.067 234.026 190.097C234.009 190.126 234 190.16 234 190.194V198.806C234 198.84 234.009 198.874 234.026 198.903C234.044 198.933 234.069 198.957 234.099 198.974C234.129 198.991 234.163 199 234.197 199C234.232 199 234.266 198.991 234.296 198.974L241.901 194.668C241.931 194.651 241.956 194.626 241.974 194.597C241.991 194.567 242 194.534 242 194.5C242 194.466 241.991 194.433 241.974 194.403C241.956 194.374 241.931 194.349 241.901 194.332L234.296 190.026C234.266 190.009 234.232 190 234.197 190C234.163 190 234.129 190.009 234.099 190.026C234.069 190.043 234.044 190.067 234.026 190.097C234.009 190.126 234 190.16 234 190.194V198.806C234 198.84 234.009 198.874 234.026 198.903C234.044 198.933 234.069 198.957 234.099 198.974C234.129 198.991 234.163 199 234.197 199C234.232 199 234.266 198.991 234.296 198.974L241.901 194.668C241.931 194.651 241.956 194.626 241.974 194.597C241.991 194.567 242 194.534 242 194.5C242 194.466 241.991 194.433 241.974 194.403C241.956 194.374 241.931 194.349 241.901 194.332Z" fill="white"/>
<path d="M257.31 194.363L253.162 192.014C253.145 192.005 253.127 192 253.108 192C253.089 192 253.07 192.005 253.054 192.014C253.037 192.023 253.024 192.037 253.014 192.053C253.005 192.069 253 192.087 253 192.106V196.803C253 196.822 253.005 196.84 253.014 196.856C253.024 196.872 253.037 196.886 253.054 196.895C253.07 196.904 253.089 196.909 253.108 196.909C253.127 196.909 253.145 196.904 253.162 196.895L257.31 194.546C257.326 194.537 257.34 194.523 257.349 194.507C257.359 194.491 257.364 194.473 257.364 194.455C257.364 194.436 257.359 194.418 257.349 194.402C257.34 194.386 257.326 194.372 257.31 194.363L253.162 192.014C253.145 192.005 253.127 192 253.108 192C253.089 192 253.07 192.005 253.054 192.014C253.037 192.023 253.024 192.037 253.014 192.053C253.005 192.069 253 192.087 253 192.106V196.803C253 196.822 253.005 196.84 253.014 196.856C253.024 196.872 253.037 196.886 253.054 196.895C253.07 196.904 253.089 196.909 253.108 196.909C253.127 196.909 253.145 196.904 253.162 196.895L257.31 194.546C257.326 194.537 257.34 194.523 257.349 194.507C257.359 194.491 257.364 194.473 257.364 194.455C257.364 194.436 257.359 194.418 257.349 194.402C257.34 194.386 257.326 194.372 257.31 194.363Z" fill="#D9D9D9"/>
<path d="M261.583 194.363L257.434 192.014C257.418 192.005 257.399 192 257.38 192C257.362 192 257.343 192.005 257.327 192.014C257.31 192.023 257.297 192.037 257.287 192.053C257.278 192.069 257.273 192.087 257.273 192.106V196.803C257.273 196.822 257.278 196.84 257.287 196.856C257.297 196.872 257.31 196.886 257.327 196.895C257.343 196.904 257.362 196.909 257.38 196.909C257.399 196.909 257.418 196.904 257.434 196.895L261.583 194.546C261.599 194.537 261.612 194.523 261.622 194.507C261.631 194.491 261.636 194.473 261.636 194.455C261.636 194.436 261.631 194.418 261.622 194.402C261.612 194.386 261.599 194.372 261.583 194.363L257.434 192.014C257.418 192.005 257.399 192 257.38 192C257.362 192 257.343 192.005 257.327 192.014C257.31 192.023 257.297 192.037 257.287 192.053C257.278 192.069 257.273 192.087 257.273 192.106V196.803C257.273 196.822 257.278 196.84 257.287 196.856C257.297 196.872 257.31 196.886 257.327 196.895C257.343 196.904 257.362 196.909 257.38 196.909C257.399 196.909 257.418 196.904 257.434 196.895L261.583 194.546C261.599 194.537 261.612 194.523 261.622 194.507C261.631 194.491 261.636 194.473 261.636 194.455C261.636 194.436 261.631 194.418 261.622 194.402C261.612 194.386 261.599 194.372 261.583 194.363Z" fill="#D9D9D9"/>
<rect x="217" y="192" width="2" height="5" fill="#D9D9D9"/>
<rect x="220" y="192" width="2" height="5" fill="#D9D9D9"/>
<defs>
<clipPath id="clip0_1_11">
<rect width="397" height="294" fill="white" transform="translate(45 9)"/>
</clipPath>
</defs>
</svg>
