<svg width="487" height="313" viewBox="0 0 487 313" fill="none" xmlns="http://www.w3.org/2000/svg">
<g clip-path="url(#clip0_1_11)">
<path d="M103.14 85.5C100.655 87.0171 98.6008 89.1473 97.1754 91.6864C95.75 94.2254 95.0009 97.0882 95 100V102.5H97V100C97.004 96.693 98.0989 93.4797 100.115 90.8582C102.131 88.2366 104.955 86.3533 108.15 85.5H103.14ZM348.68 83H112C107.493 83.0053 103.172 84.798 99.985 87.985C96.798 91.172 95.0053 95.4929 95 100V284.5V449C95.0064 453.507 96.7995 457.827 99.9862 461.014C103.173 464.201 107.493 465.994 112 466H375C379.507 465.994 383.827 464.201 387.014 461.014C390.201 457.827 391.994 453.507 392 449V284.5V121.68L348.68 83ZM390 449C389.995 452.977 388.413 456.789 385.601 459.601C382.789 462.413 378.977 463.995 375 464H112C108.023 463.995 104.211 462.413 101.399 459.601C98.5867 456.789 97.0048 452.977 97 449V284.5V100C97.004 96.693 98.0989 93.4797 100.115 90.8582C102.131 88.2366 104.955 86.3533 108.15 85.5C109.406 85.1654 110.7 84.9973 112 85H347.92L390 122.57V284.5V449ZM103.14 85.5C100.655 87.0171 98.6008 89.1473 97.1754 91.6864C95.75 94.2254 95.0009 97.0882 95 100V102.5H97V100C97.004 96.693 98.0989 93.4797 100.115 90.8582C102.131 88.2366 104.955 86.3533 108.15 85.5H103.14Z" fill="#ADADAD"/>
<path d="M391 123H364C359.493 122.995 355.172 121.202 351.985 118.015C348.798 114.828 347.005 110.507 347 106V84C347 83.7348 347.105 83.4804 347.293 83.2929C347.48 83.1054 347.735 83 348 83C348.265 83 348.52 83.1054 348.707 83.2929C348.895 83.4804 349 83.7348 349 84V106C349.004 109.977 350.586 113.79 353.398 116.602C356.21 119.414 360.023 120.996 364 121H391C391.265 121 391.52 121.105 391.707 121.293C391.895 121.48 392 121.735 392 122C392 122.265 391.895 122.52 391.707 122.707C391.52 122.895 391.265 123 391 123Z" fill="#ADADAD"/>
<path d="M357.541 189.5H129.541C127.42 189.5 125.385 188.657 123.884 187.157C122.384 185.657 121.541 183.622 121.541 181.5C121.541 179.378 122.384 177.343 123.884 175.843C125.385 174.343 127.42 173.5 129.541 173.5H357.541C359.663 173.5 361.698 174.343 363.198 175.843C364.699 177.343 365.541 179.378 365.541 181.5C365.541 183.622 364.699 185.657 363.198 187.157C361.698 188.657 359.663 189.5 357.541 189.5Z" fill="#5E5E5E"/>
<path d="M242.541 155.5H129.541C127.42 155.5 125.385 154.657 123.884 153.157C122.384 151.657 121.541 149.622 121.541 147.5C121.541 145.378 122.384 143.344 123.884 141.843C125.385 140.343 127.42 139.5 129.541 139.5H242.541C244.663 139.5 246.698 140.343 248.198 141.843C249.699 143.344 250.541 145.378 250.541 147.5C250.541 149.622 249.699 151.657 248.198 153.157C246.698 154.657 244.663 155.5 242.541 155.5Z" fill="#5E5E5E"/>
<path d="M357.541 256.5H129.541C127.42 256.5 125.385 255.657 123.884 254.157C122.384 252.657 121.541 250.622 121.541 248.5C121.541 246.378 122.384 244.343 123.884 242.843C125.385 241.343 127.42 240.5 129.541 240.5H357.541C359.663 240.5 361.698 241.343 363.198 242.843C364.699 244.343 365.541 246.378 365.541 248.5C365.541 250.622 364.699 252.657 363.198 254.157C361.698 255.657 359.663 256.5 357.541 256.5Z" fill="#5E5E5E"/>
<path d="M242.541 222.5H129.541C127.42 222.5 125.385 221.657 123.884 220.157C122.384 218.657 121.541 216.622 121.541 214.5C121.541 212.378 122.384 210.343 123.884 208.843C125.385 207.343 127.42 206.5 129.541 206.5H242.541C244.663 206.5 246.698 207.343 248.198 208.843C249.699 210.343 250.541 212.378 250.541 214.5C250.541 216.622 249.699 218.657 248.198 220.157C246.698 221.657 244.663 222.5 242.541 222.5Z" fill="#5E5E5E"/>
</g>
<defs>
<clipPath id="clip0_1_11">
<rect width="487" height="313" fill="white"/>
</clipPath>
</defs>
</svg>
